<svg xmlns="http://www.w3.org/2000/svg" role="img" aria-label="Flowchart preview" viewBox="0 0 1410 251" style="font-family:Arial,'Microsoft YaHei',sans-serif;background:#F8FAFC"><defs><marker id="arrow" viewBox="0 0 10 10" refX="9" refY="5" markerWidth="7" markerHeight="7" orient="auto-start-reverse"><path d="M0 0 L10 5 L0 10z" fill="#64748B"/></marker></defs><polyline points="210,113 249,113 288,113" fill="none" stroke="#64748B" stroke-width="1.7"  marker-end="url(#arrow)"/><polyline points="472,146.00763358778624 511,160 550,160" fill="none" stroke="#64748B" stroke-width="1.7"  marker-end="url(#arrow)"/><polyline points="757.9583333333334,172.45833333333334 859,186 938,186" fill="none" stroke="#64748B" stroke-width="1.7"  marker-end="url(#arrow)"/><polyline points="742.5273990911521,138.81983426891205 859,107 938,85.28654970760235" fill="none" stroke="#64748B" stroke-width="1.7"  marker-end="url(#arrow)"/><polyline points="938,50.31578947368421 859,42 665,42 511,42 442.7323943661972,79" fill="none" stroke="#64748B" stroke-width="1.7"  marker-end="url(#arrow)"/><polyline points="1122,186 1161,186 1200,186" fill="none" stroke="#64748B" stroke-width="1.7"  marker-end="url(#arrow)"/><g><rect x="26" y="79" width="184" height="68" rx="34" fill="#DDF9EE" stroke="#138264" stroke-width="1.8"/><text text-anchor="middle" font-size="18" fill="#172333"><tspan x="118" y="119">收集需求</tspan></text></g><g><rect x="288" y="79" width="184" height="68" rx="5" fill="#DDF9EE" stroke="#138264" stroke-width="1.8"/><text text-anchor="middle" font-size="18" fill="#172333"><tspan x="380" y="119">设计与开发</tspan></text></g><g><polygon points="665,95 780,160 665,225 550,160" fill="#DDF9EE" stroke="#138264" stroke-width="1.8"/><text text-anchor="middle" font-size="18" fill="#172333"><tspan x="665" y="166">测试通过？</tspan></text></g><g><rect x="938" y="152" width="184" height="68" rx="5" fill="#DDF9EE" stroke="#138264" stroke-width="1.8"/><text text-anchor="middle" font-size="18" fill="#172333"><tspan x="1030" y="192">发布新版本</tspan></text></g><g><rect x="938" y="26" width="184" height="68" rx="5" fill="#DDF9EE" stroke="#138264" stroke-width="1.8"/><text text-anchor="middle" font-size="18" fill="#172333"><tspan x="1030" y="66">记录问题并改进</tspan></text></g><g><rect x="1200" y="152" width="184" height="68" rx="34" fill="#DDF9EE" stroke="#138264" stroke-width="1.8"/><text text-anchor="middle" font-size="18" fill="#172333"><tspan x="1292" y="192">收集用户反馈</tspan></text></g><g><rect x="819" y="171" width="80" height="30" rx="5" fill="#F8FAFC"/><text x="859" y="191" text-anchor="middle" font-size="15" fill="#172333">通过</text></g><g><rect x="819" y="92" width="80" height="30" rx="5" fill="#F8FAFC"/><text x="859" y="112" text-anchor="middle" font-size="15" fill="#172333">需要修改</text></g></svg>