<svg xmlns="http://www.w3.org/2000/svg" role="img" aria-label="Flowchart preview" viewBox="0 0 556 784" style="font-family:Arial,'Microsoft YaHei',sans-serif;background:#F8FAFC"><defs><marker id="arrow" viewBox="0 0 10 10" refX="9" refY="5" markerWidth="7" markerHeight="7" orient="auto-start-reverse"><path d="M0 0 L10 5 L0 10z" fill="#64748B"/></marker></defs><polyline points="329.6986301369863,437 389,476 389,555 389,594" fill="none" stroke="#64748B" stroke-width="1.7"  marker-end="url(#arrow)"/><polyline points="226.3013698630137,437 167,476 167,555 167,594" fill="none" stroke="#64748B" stroke-width="1.7" stroke-dasharray="6 5" marker-end="url(#arrow)"/><polyline points="167,173 167,212 167,251 167,330 226.3013698630137,369" fill="none" stroke="#64748B" stroke-width="1.7"  marker-end="url(#arrow)"/><polyline points="389,173 389,212 389,251 389,330 329.6986301369863,369" fill="none" stroke="#64748B" stroke-width="1.7"  marker-end="url(#arrow)"/><g><rect x="46" y="26" width="464" height="186" rx="6" fill="none" stroke="#138264" stroke-width="1.3" stroke-dasharray="7 4"/><text font-size="16" font-weight="bold" fill="#172333" stroke="#F8FAFC" stroke-width="4" stroke-linejoin="round" paint-order="stroke"><tspan x="60" y="51">Client applications</tspan></text></g><g><rect x="26" y="290" width="504" height="468" rx="6" fill="none" stroke="#138264" stroke-width="1.3" stroke-dasharray="7 4"/><text font-size="16" font-weight="bold" fill="#172333" stroke="#F8FAFC" stroke-width="4" stroke-linejoin="round" paint-order="stroke"><tspan x="40" y="315">应用服务</tspan></text></g><g><rect x="46" y="515" width="464" height="204" rx="6" fill="none" stroke="#138264" stroke-width="1.3" stroke-dasharray="7 4"/><text font-size="16" font-weight="bold" fill="#172333" stroke="#F8FAFC" stroke-width="4" stroke-linejoin="round" paint-order="stroke"><tspan x="60" y="540">Data services</tspan></text></g><g><rect x="75" y="105" width="184" height="68" rx="5" fill="#DDF9EE" stroke="#138264" stroke-width="1.8"/><text text-anchor="middle" font-size="18" fill="#172333"><tspan x="167" y="145">Web app</tspan></text></g><g><rect x="297" y="105" width="184" height="68" rx="5" fill="#DDF9EE" stroke="#138264" stroke-width="1.8"/><text text-anchor="middle" font-size="18" fill="#172333"><tspan x="389" y="145">Mobile app</tspan></text></g><g><rect x="186" y="369" width="184" height="68" rx="5" fill="#DDF9EE" stroke="#138264" stroke-width="1.8"/><text text-anchor="middle" font-size="18" fill="#172333"><tspan x="278" y="409">API gateway</tspan></text></g><g><path d="M297,607 a92,13 0 0 1 184,0 v60 a92,13 0 0 1 -184,0 Z" fill="#DDF9EE" stroke="#138264" stroke-width="1.8"/><ellipse cx="389" cy="607" rx="92" ry="13" fill="#DDF9EE" stroke="#138264" stroke-width="1.8"/><text text-anchor="middle" font-size="18" fill="#172333"><tspan x="389" y="643">Database</tspan></text></g><g><path d="M75,607 a92,13 0 0 1 184,0 v60 a92,13 0 0 1 -184,0 Z" fill="#DDF9EE" stroke="#138264" stroke-width="1.8"/><ellipse cx="167" cy="607" rx="92" ry="13" fill="#DDF9EE" stroke="#138264" stroke-width="1.8"/><text text-anchor="middle" font-size="18" fill="#172333"><tspan x="167" y="643">Cache</tspan></text></g></svg>